<svg xmlns="http://www.w3.org/2000/svg" width="32.413" height="38.895" viewBox="0 0 32.413 38.895"><defs><style>.a{fill:#1a9483;}</style></defs><path class="a" d="M29.956,0H6.457A4.46,4.46,0,0,0,2,4.457V34.438A4.46,4.46,0,0,0,6.457,38.9h23.5a4.46,4.46,0,0,0,4.457-4.457V4.457A4.46,4.46,0,0,0,29.956,0ZM16.181,21.068v-7.98a8.084,8.084,0,1,1-6,14.484l5.645-5.645A1.21,1.21,0,0,0,16.181,21.068Zm-2.431-7.98v7.478L8.461,25.854A8.037,8.037,0,0,1,13.75,13.088Zm14.586,21.35H8.077a1.215,1.215,0,1,1,0-2.431H28.335a1.215,1.215,0,1,1,0,2.431Zm0-5.267H25.9a1.215,1.215,0,0,1,0-2.431h2.431a1.215,1.215,0,0,1,0,2.431Zm0-4.457H25.9a1.215,1.215,0,1,1,0-2.431h2.431a1.215,1.215,0,0,1,0,2.431Zm0-4.862H25.9a1.215,1.215,0,1,1,0-2.431h2.431a1.215,1.215,0,0,1,0,2.431Zm0-4.457H25.9a1.215,1.215,0,1,1,0-2.431h2.431a1.215,1.215,0,0,1,0,2.431Z" transform="translate(-2)"/></svg>