<svg xmlns="http://www.w3.org/2000/svg" width="29.283" height="19.279" viewBox="0 0 29.283 19.279"><defs><style>.a{fill:#acacac;}</style></defs><g transform="translate(-50.962 -242.017)"><g transform="translate(50.962 242.017)"><circle class="a" cx="1.071" cy="1.071" r="1.071" transform="translate(21.068 7.855)"/><path class="a" d="M79.721,250.063c-.877-3.346-2.694-6.091-4.861-7.342a4.532,4.532,0,0,0-3.5-.562,4.331,4.331,0,0,0-2.307,1.615,1.029,1.029,0,0,1-.819.385H62.977a1.029,1.029,0,0,1-.818-.385,4.332,4.332,0,0,0-2.307-1.615,4.533,4.533,0,0,0-3.5.562c-2.167,1.251-3.984,4-4.861,7.342-1.394,5.321.083,10.194,3.363,11.093a3.961,3.961,0,0,0,1.051.141c1.732,0,3.546-1.1,5.02-3.1a1.093,1.093,0,0,1,.879-.464h7.609a1.107,1.107,0,0,1,.879.464c1.775,2.411,4.044,3.519,6.07,2.964,3.28-.9,4.758-5.772,3.363-11.093Zm-19.473,1.952H59.176v1.071a1.071,1.071,0,1,1-2.142,0v-1.071H55.963a1.071,1.071,0,0,1,0-2.142h1.071V248.8a1.071,1.071,0,0,1,2.142,0v1.071h1.071a1.071,1.071,0,0,1,0,2.142Zm6.427.357a1.071,1.071,0,1,1-2.142,0v-2.856a1.071,1.071,0,1,1,2.142,0Zm6.427,1.785a3.213,3.213,0,1,1,3.213-3.213A3.217,3.217,0,0,1,73.1,254.157Z" transform="translate(-50.962 -242.017)"/></g></g></svg>