<svg xmlns="http://www.w3.org/2000/svg" width="18.171" height="18.976" viewBox="0 0 18.171 18.976"><defs><style>.a{fill:none;}.b{fill:#fcfcfc;}.c{fill:#56d057;}.d,.e{stroke:none;}.e{fill:#3041a7;}</style></defs><g transform="translate(-1096.768 -25.792)"><rect class="a" width="18" height="18" transform="translate(1096.768 26.768)"/><g transform="translate(1098.268 28.078)"><path class="b" d="M6,14h4a2,2,0,0,1-4,0ZM1,13a1,1,0,0,1,0-2h.5A4.353,4.353,0,0,0,3,8V5A4.952,4.952,0,0,1,8,0a4.951,4.951,0,0,1,5,5V8a4.351,4.351,0,0,0,1.5,3H15a1,1,0,0,1,0,2Z" transform="translate(0.5 0.69)"/><g class="c" transform="translate(7.648 -1.286)"><path class="d" d="M 4.011627197265625 8.523257255554199 C 1.52390718460083 8.523257255554199 -0.5000028014183044 6.49934720993042 -0.5000028014183044 4.011627197265625 C -0.5000028014183044 1.52390718460083 1.52390718460083 -0.5000028014183044 4.011627197265625 -0.5000028014183044 C 6.49934720993042 -0.5000028014183044 8.523257255554199 1.52390718460083 8.523257255554199 4.011627197265625 C 8.523257255554199 6.49934720993042 6.49934720993042 8.523257255554199 4.011627197265625 8.523257255554199 Z"/><path class="e" d="M 4.011627197265625 -2.86102294921875e-06 C 1.796067237854004 -2.86102294921875e-06 -2.86102294921875e-06 1.796067237854004 -2.86102294921875e-06 4.011627197265625 C -2.86102294921875e-06 6.227187156677246 1.796067237854004 8.023257255554199 4.011627197265625 8.023257255554199 C 6.227187156677246 8.023257255554199 8.023257255554199 6.227187156677246 8.023257255554199 4.011627197265625 C 8.023257255554199 1.796067237854004 6.227187156677246 -2.86102294921875e-06 4.011627197265625 -2.86102294921875e-06 M 4.011627197265625 -1.000002861022949 C 6.775047302246094 -1.000002861022949 9.023257255554199 1.248207092285156 9.023257255554199 4.011627197265625 C 9.023257255554199 6.775047302246094 6.775047302246094 9.023257255554199 4.011627197265625 9.023257255554199 C 1.248207092285156 9.023257255554199 -1.000002861022949 6.775047302246094 -1.000002861022949 4.011627197265625 C -1.000002861022949 1.248207092285156 1.248207092285156 -1.000002861022949 4.011627197265625 -1.000002861022949 Z"/></g></g></g></svg>