<svg xmlns="http://www.w3.org/2000/svg" width="24.338" height="24.338" viewBox="0 0 24.338 24.338"><defs><style>.a{fill:#fff;}</style></defs><g transform="translate(0 0)"><path class="a" d="M89.876,7.184c.011.011.02.022.03.033a6.33,6.33,0,0,1,7.842.018c.009-.01.018-.021.028-.031l4.169-4.169A12.171,12.171,0,0,0,85.79,3.1Z" transform="translate(-81.711 0)"/><path class="a" d="M363.5,86.364l-4.169,4.169c-.012.011-.024.022-.036.032a6.33,6.33,0,0,1-.018,7.8c.011.01.023.019.033.03l4.127,4.127A12.171,12.171,0,0,0,363.5,86.364Z" transform="translate(-342.196 -82.258)"/><path class="a" d="M7.095,99.749c.011-.011.022-.02.033-.03a6.33,6.33,0,0,1,0-7.819c-.011-.01-.023-.019-.033-.03l-4.08-4.08a12.17,12.17,0,0,0,0,16.037Z" transform="translate(0 -83.617)"/><path class="a" d="M97.858,361.192c-.011-.011-.02-.022-.03-.033a6.33,6.33,0,0,1-7.819,0c-.01.011-.019.023-.03.033L85.9,365.273a12.17,12.17,0,0,0,16.081.041Z" transform="translate(-81.814 -343.99)"/></g></svg>