<svg xmlns="http://www.w3.org/2000/svg" xmlns:xlink="http://www.w3.org/1999/xlink" width="39" height="39" viewBox="0 0 39 39"><defs><style>.a{fill:#dbebff;stroke:#dbebff;}.b{clip-path:url(#a);}.c,.d{mix-blend-mode:multiply;isolation:isolate;}.d{fill:#9ec9ff;}.e{fill:#fff;}</style><clipPath id="a"><rect class="a" width="39" height="39" rx="19.5" transform="translate(0 0.274)"/></clipPath></defs><g transform="translate(0.274 0)"><g class="b" transform="translate(39) rotate(90)"><g class="c" transform="translate(226.65 134.211) rotate(-180)"><path class="d" d="M94.936.027a4.424,4.424,0,0,1,2.08.443L302.851,100.593c.633.308.269.447-.656.25L1.486,36.74c-.925-.2-1.716-.582-1.424-.693Z" transform="matrix(-0.966, -0.259, 0.259, -0.966, 292.838, 175.961)"/><path class="d" d="M118.3.027a4.431,4.431,0,0,1,2.077.443l255.309,123.9c.636.309.272.448-.654.251L1.486,44.994C.56,44.8-.232,44.411.062,44.3Z" transform="matrix(0.966, 0.259, -0.259, 0.966, 74.019, 53.697)"/><path class="d" d="M183.722,89.4a.886.886,0,0,0,.417.089L268.8,57.356c.058-.022-.1-.1-.285-.139L.195.018C.01-.021-.063.007.064.068Z" transform="matrix(-0.966, -0.259, 0.259, -0.966, 338.327, 228.539)"/></g></g><g transform="translate(6.792 7.557)"><path class="e" d="M89.876,7.184c.011.011.02.022.03.033a6.33,6.33,0,0,1,7.842.018c.009-.01.018-.021.028-.031l4.169-4.169A12.171,12.171,0,0,0,85.79,3.1Z" transform="translate(-81.711 0)"/><path class="e" d="M363.5,86.364l-4.169,4.169c-.012.011-.024.022-.036.032a6.33,6.33,0,0,1-.018,7.8c.011.01.023.019.033.03l4.127,4.127A12.171,12.171,0,0,0,363.5,86.364Z" transform="translate(-342.196 -82.258)"/><path class="e" d="M7.095,99.749c.011-.011.022-.02.033-.03a6.33,6.33,0,0,1,0-7.819c-.011-.01-.023-.019-.033-.03l-4.08-4.08a12.17,12.17,0,0,0,0,16.037Z" transform="translate(0 -83.617)"/><path class="e" d="M97.858,361.192c-.011-.011-.02-.022-.03-.033a6.33,6.33,0,0,1-7.819,0c-.01.011-.019.023-.03.033L85.9,365.273a12.17,12.17,0,0,0,16.081.041Z" transform="translate(-81.814 -343.99)"/></g></g></svg>