<svg xmlns="http://www.w3.org/2000/svg" width="21.745" height="21.745" viewBox="0 0 21.745 21.745"><defs><style>.a{fill:#acacac;}</style></defs><path class="a" d="M28.476,229.483l-5.622,5.622a10.855,10.855,0,0,0,.982,1.721l5.992-5.992Z" transform="translate(-21.883 -219.737)"/><path class="a" d="M11.1,7.945l1.8,1.8,6.1-6.1A10.875,10.875,0,0,0,.476,14.062L6.593,7.945a3.189,3.189,0,0,1,4.5,0Z"/><path class="a" d="M179.153,113.806a1.913,1.913,0,0,0-2.7,0l4.054,4.054a1.911,1.911,0,0,0,2.7,0l6.523-6.523a10.857,10.857,0,0,0-.982-1.721l-6.893,6.893Z" transform="translate(-168.956 -104.96)"/><path class="a" d="M77.1,187.024a3.185,3.185,0,0,1-4.5,0l-1.8-1.8-6.1,6.1a10.875,10.875,0,0,0,18.522-10.413Z" transform="translate(-61.948 -173.224)"/></svg>