<svg xmlns="http://www.w3.org/2000/svg" xmlns:xlink="http://www.w3.org/1999/xlink" width="328" height="54" viewBox="0 0 328 54"><defs><style>.a{fill:#dbebff;stroke:#dbebff;}.b{clip-path:url(#a);}.c{opacity:0.27;}.c,.d{isolation:isolate;}.d{fill:#ace0dd;mix-blend-mode:multiply;}</style><clipPath id="a"><rect class="a" width="54" height="328" rx="2" transform="translate(0.063)"/></clipPath></defs><g class="b" transform="translate(0 54.063) rotate(-90)"><g class="c" transform="translate(-891.469 544.182) rotate(-60)"><path class="d" d="M624.154-14.3c1.806-2.228,4.031-3.417,3.993-2.133L614.534,441.217c-.038,1.276-2.287,4.041-4.054,4.985L-19.849,782.941c-1.768.944-1.734-.637.061-2.852Z" transform="matrix(-0.966, -0.259, 0.259, -0.966, 1212.423, 895.769)"/><path class="d" d="M772.7-18.325c1.8-2.221,4.021-3.406,3.988-2.13L762.058,543.589c-.033,1.273-2.285,4.044-4.055,4.989l-782.821,418.2c-1.77.946-1.733-.642.067-2.859Z" transform="matrix(0.966, 0.259, -0.259, 0.966, 253.679, -5.858)"/><path class="d" d="M550.219-12.305c1.806-2.228,4.031-3.416,3.993-2.133l-11.96,403.288c-.038,1.276-2.287,4.041-4.055,4.985L-17.354,690.625c-1.768.944-1.734-.638.062-2.852Z" transform="matrix(0.966, 0.259, -0.259, 0.966, 466.202, 210.771)"/></g></g></svg>