<svg xmlns="http://www.w3.org/2000/svg" width="21.745" height="21.745" viewBox="0 0 21.745 21.745"><defs><style>.a{fill:#acacac;}</style></defs><path class="a" d="M10.873,199.2a10.873,10.873,0,1,0,10.873,10.873A10.886,10.886,0,0,0,10.873,199.2Zm2.991,6.5H12.9a5.4,5.4,0,0,1,.215,1.157h.75v1.372h-.75a2.705,2.705,0,0,1-2.983,2.824H10.1l3.374,5.057H11.256l-3.39-5.057v-1.683h1.97a1.36,1.36,0,0,0,.957-.271,1.443,1.443,0,0,0,.367-.869H7.873v-1.372h3.294a1.379,1.379,0,0,0-.351-.886,1.392,1.392,0,0,0-.973-.271H7.873v-1.667h6V205.7Z" transform="translate(0 -199.2)"/></svg>