<svg xmlns="http://www.w3.org/2000/svg" width="21.743" height="21.745" viewBox="0 0 21.743 21.745"><defs><style>.a{fill:#63748d;}</style></defs><path class="a" d="M21.159,9.457h0L12.287.586a2,2,0,0,0-2.831,0L.59,9.451.581,9.46a2,2,0,0,0,1.332,3.411q.031,0,.062,0h.354V19.4a2.345,2.345,0,0,0,2.343,2.343h3.47a.637.637,0,0,0,.637-.637V15.99a1.07,1.07,0,0,1,1.069-1.069h2.047a1.07,1.07,0,0,1,1.069,1.069v5.118a.637.637,0,0,0,.637.637h3.47A2.345,2.345,0,0,0,19.414,19.4V12.874h.328a2,2,0,0,0,1.417-3.417Zm0,0" transform="translate(0 0.001)"/></svg>