<svg xmlns="http://www.w3.org/2000/svg" width="21.691" height="21.691" viewBox="0 0 21.691 21.691"><defs><style>.a{fill:#acacac;}</style></defs><path class="a" d="M17.983,9.251V.638A.638.638,0,0,0,17.345,0H.638A.638.638,0,0,0,0,.638V17.746a1.037,1.037,0,0,0,1.02,1.036,1.04,1.04,0,0,0,1.015-1.036v-6.3c0-.009,0-.018,0-.027A2.258,2.258,0,0,1,4.3,9.251ZM11.824,3.217a.638.638,0,1,1,.985-.811l.957,1.162.956-1.162a.638.638,0,0,1,.985.811L14.592,4.572l1.115,1.355a.638.638,0,0,1-.985.811l-.956-1.162-.957,1.162a.638.638,0,1,1-.985-.811l1.115-1.355ZM6.417,4.26a2.087,2.087,0,1,1,4.174,0V6.332a.638.638,0,1,1-1.276,0v-.5H7.693v.5a.638.638,0,1,1-1.276,0ZM3.658,6.97a.638.638,0,0,1-.638-.638V3.449H2.209a.638.638,0,0,1,0-1.276h2.9a.638.638,0,1,1,0,1.276H4.3V6.332A.638.638,0,0,1,3.658,6.97Z"/><path class="a" d="M73.258,247.5h0a.985.985,0,0,0-.986.934v6.286a2.289,2.289,0,0,1-.248,1.036h2.226v-7.268A.989.989,0,0,0,73.258,247.5Z" transform="translate(-68.957 -236.973)"/><path class="a" d="M182.5,81.9a.811.811,0,1,0-1.622,0v.3H182.5Z" transform="translate(-173.187 -77.641)"/><path class="a" d="M163.385,247.5H149.02a2.251,2.251,0,0,1,.227.988v9.538a.638.638,0,0,0,.638.638h13.85a.638.638,0,0,0,.638-.638v-9.538A.989.989,0,0,0,163.385,247.5Zm-11.492,3.27h4.944a.638.638,0,1,1,0,1.276h-4.944a.638.638,0,1,1,0-1.276Zm4.975,4.72c-.031,0,.27,0-4.975,0a.638.638,0,1,1,0-1.276h4.944a.638.638,0,0,1,.031,1.275Zm5.344,0h-2.424a.638.638,0,1,1,0-1.276h2.424a.638.638,0,1,1,0,1.276Zm0-3.445h-2.424a.638.638,0,1,1,0-1.276h2.424a.638.638,0,1,1,0,1.276Z" transform="translate(-142.682 -236.973)"/></svg>